
        <svg xmlns="http://www.w3.org/2000/svg" xmlns:xlink="http://www.w3.org/1999/xlink" version="1.1" width="3228.5714285714284" 
        height="1885.7142857142858" viewBox="0 0 3228.5714285714284 1885.7142857142858">
			
			<g transform="scale(11.428571428571429) translate(10, 10)">
				<defs id="SvgjsDefs8865"></defs><g id="SvgjsG8866" featureKey="LwVBM5-0" transform="matrix(0.4484305086154855,0,0,0.4484305086154855,110.6412555877619,-0.1793722194833189)" fill="#145753"><g xmlns="http://www.w3.org/2000/svg"><g><path d="M65.9,56.8c2-2.9,3.5-6.2,4.2-9.8c0.2-1.1-0.5-2.2-1.7-2.5c-1.1-0.2-2.2,0.5-2.5,1.7c-1.7,8.5-8.2,15-16.4,16.8    c-2.1-6.7-1.6-12.8,1.5-18.1c0,0,0,0,0,0c0,0,0,0,0,0c0,0,6.7-13.5,15.3-18.1c0,0-4,5-6.4,9.1c-2.4,4.1-4.2,8.4-4.2,8.4    c3.6-0.5,7.2-2.1,10.3-4.7c4.8-4,7.7-9.8,7.9-15.9c0-1-0.7-1.9-1.6-2.1c-3.2-0.7-6.7-0.4-9.9,0.7C55.6,11.5,46.8,1.6,46.4,1.1    c-0.4-0.4-1-0.7-1.6-0.7c-0.6,0-1.2,0.3-1.6,0.7c-1,1.1-24.1,27.3-24.2,41c0,5.6,1.8,10.7,4.8,14.9C9.4,60,0.8,65.7,0.8,72.6    c0,8.6,15.6,17.6,44.6,17.6c28.9,0,44.6-9.1,44.6-17.6C90,65.7,80.8,59.8,65.9,56.8z M56.3,65.5c7.9,1,11.8,2.6,13,3.5    c-1.8,1.6-10.4,4.1-23.9,4.1c-13.4,0-22-2.5-23.9-4.1c1.1-0.9,4.8-2.5,12-3.5c0.2,0,0.4-0.1,0.6-0.2c3.3,1.5,6.9,2.4,10.7,2.4    c3.9,0,7.5-0.9,10.9-2.4C55.9,65.4,56.1,65.5,56.3,65.5z M44.9,5.7c2.8,3.3,8.8,10.7,13.8,18.4c-1,0.6-1.9,1.2-2.8,1.9    c-4.8,4-7.7,9.8-7.9,15.9c0,0.1,0,0.2,0,0.3c-0.2,0.2-0.4,0.3-0.5,0.6c-0.2,0.3-0.3,0.6-0.5,0.9c-0.6-1.8-1.6-3.6-2.8-5.3    c-3.3-4.5-8.1-7.4-13.3-8.1c-1-0.1-2,0.5-2.3,1.6c-1.2,4.8,0,10.2,3.3,14.7c3.1,4.2,7.5,7,12.2,7.9c-0.1,2.9,0.3,6,1.2,9.1    c-0.2,0-0.4,0-0.5,0c-11.9,0-21.5-9.6-21.5-21.5C23.4,32.8,37.7,14.1,44.9,5.7z M45.4,86C21.6,86,5,79,5,72.6    c0-4.7,9.1-9.6,22.1-11.9c0.3,0.3,0.6,0.5,0.9,0.8c-7.8,1.6-11.7,4.2-11.7,7.6c0,8.9,26.1,9.2,29.1,9.2S74.5,78,74.5,69    c0-3.6-4.3-6.2-12.6-7.7c0.3-0.3,0.6-0.5,0.9-0.8c13.6,2.3,23,7.2,23,12.1C85.8,79,69.2,86,45.4,86z"></path></g></g></g><g id="SvgjsG8867" featureKey="textGroupContainer" transform="matrix(1,0,0,1,0,40)" fill="#263353"><rect xmlns="http://www.w3.org/2000/svg" y="0" x="0" height="1" width="1" opacity="0"></rect><rect xmlns="http://www.w3.org/2000/svg" y="103" x="0" width="25" height="2"></rect><rect xmlns="http://www.w3.org/2000/svg" y="103" x="237.5" width="25" height="2"></rect></g><g id="SvgjsG8868" featureKey="YhTCwJ-0" transform="matrix(5.337319817813142,0,0,5.337319817813142,2.4773687802665436,15.189573682231082)" fill="#14ffec"><path d="M0.8 20 l0 -0.54 l0.32 -0.34 c0.36 -0.38 0.56 -0.82 0.56 -1.36 l0 -9.32 c0 -0.48 -0.16 -0.96 -0.46 -1.28 l-0.56 -0.58 l0 -0.58 l3.18 0 l8.14 12.66 l0 -10.7 c0 -0.52 -0.2 -1 -0.62 -1.38 l0 -0.58 l2.4 0 l0 0.58 l-0.32 0.32 c-0.38 0.34 -0.6 0.84 -0.6 1.34 l0 11.76 l-2.16 0 l-7.9 -12.3 l-0.22 0 l0 10.36 c0 0.52 0.24 1.02 0.62 1.4 l0 0.54 l-2.38 0 z M22.7 20 l-0.54 -0.14 c-0.9 -0.24 -1.88 -0.24 -2.72 0.02 c-0.34 0.1 -0.66 0.12 -0.98 0.12 c-1.96 0 -3.52 -1.54 -3.52 -3.48 c0 -1.9 1.56 -3.46 3.52 -3.46 c0.78 0 1.48 0.24 2.02 0.62 l0 -0.02 s0.16 -2.44 -0.92 -2.74 c-1.12 -0.32 -1.52 0.34 -2.34 1.58 l-1.68 -0.02 c0.52 -1.32 1.54 -2.24 2.98 -2.24 c0.54 0 1.1 0.1 1.64 0.26 c0 0 2.54 0.78 2.54 3.16 l0 6.34 z M16.56 17.02 c0.46 1.5 1.6 2.56 2.76 2.3 c1.12 -0.26 1.64 -1.72 1.18 -3.28 c-0.44 -1.48 -1.74 -2.54 -2.86 -2.26 c-1.14 0.28 -1.54 1.72 -1.08 3.24 z M24.38 20 l0 -0.56 c0.68 -0.68 1.02 -1.6 1.02 -2.62 l0 -4.6 l-0.92 0 l0 -0.82 l0.92 0 l0 -2.04 c0 -2.38 2.58 -3.16 2.58 -3.16 c0.44 -0.18 1.04 -0.24 1.58 -0.24 c1.08 0 2.02 0.68 2.46 1.66 l0.26 0.58 l-1.16 0 c-0.66 -1.04 -1.26 -1.7 -2.06 -1.76 c-0.5 -0.04 -0.94 0.24 -1.12 0.66 c-0.18 0.44 -0.34 1.12 -0.34 2.26 l0 2.04 l2.32 0 l0 0.82 l-2.32 0 l0 4.58 c0 1.02 0.36 1.96 1.04 2.64 l0 0.56 l-4.26 0 z M38.5 20 l-0.54 -0.14 c-0.9 -0.24 -1.88 -0.24 -2.72 0.02 c-0.34 0.1 -0.66 0.12 -0.98 0.12 c-1.96 0 -3.52 -1.54 -3.52 -3.48 c0 -1.9 1.56 -3.46 3.52 -3.46 c0.78 0 1.48 0.24 2.02 0.62 l0 -0.02 s0.16 -2.44 -0.92 -2.74 c-1.12 -0.32 -1.52 0.34 -2.34 1.58 l-1.68 -0.02 c0.52 -1.32 1.54 -2.24 2.98 -2.24 c0.54 0 1.1 0.1 1.64 0.26 c0 0 2.54 0.78 2.54 3.16 l0 6.34 z M32.36 17.02 c0.46 1.5 1.6 2.56 2.76 2.3 c1.12 -0.26 1.64 -1.72 1.18 -3.28 c-0.44 -1.48 -1.74 -2.54 -2.86 -2.26 c-1.14 0.28 -1.54 1.72 -1.08 3.24 z M40.3 19.18 l0 -1.42 l0.66 0 l0.78 0.84 c0.52 0.56 1.14 0.78 2.02 0.76 c0.8 0 2.02 -0.3 2.02 -1.04 c0 -0.94 -1.82 -2.08 -2.9 -2.72 c-0.94 -0.54 -2.58 -1.48 -2.58 -2.62 c0 -2.18 2.54 -2.72 3.28 -2.72 c0.94 0 1.88 0.22 2.88 0.68 l0 1.38 l-0.72 0 l-0.58 -0.66 c-0.42 -0.48 -1.02 -0.8 -1.68 -0.78 c-0.6 0 -1.72 0.46 -1.72 1.16 c0 0.82 1.94 1.44 3.96 2.82 c1.22 0.82 1.78 1.84 1.78 2.76 c0 1.32 -1.12 2.44 -3.04 2.44 c-2.5 0 -4.16 -0.88 -4.16 -0.88 z"></path></g><g id="SvgjsG8869" featureKey="duLK5n-0" transform="matrix(0.41084632801392573,0,0,0.41084632801392573,30.72062476338377,129.81429863988023)" fill="#263353"><path d="M8.14 18.46 c1.78 0 3.44 -0.82 4.54 -2.26 l1.4 1.04 c-1.42 1.9 -3.6 2.98 -5.94 2.98 c-4.12 0 -7.46 -3.34 -7.46 -7.46 c0 -4.1 3.34 -7.44 7.46 -7.44 c2.36 0 4.54 1.1 5.96 3 l-1.42 1.04 c-1.08 -1.46 -2.74 -2.28 -4.54 -2.28 c-3.16 0 -5.7 2.54 -5.7 5.68 c0 3.16 2.54 5.7 5.7 5.7 z M39.1 20 l-1.58 -4.14 l-5.82 0 l-1.58 4.14 l-1.92 0 l5.48 -14.24 l1.86 0 l5.5 14.24 l-1.94 0 z M36.82 14.1 l-2.2 -5.76 l-2.22 5.76 l4.42 0 z M55.9 20 l0 -14.24 l1.8 0 l0 12.5 l7.8 0 l0 1.74 l-9.6 0 z M93.4 20 l-1.78 0 l0 -11.36 l-4.54 6.2 l-4.52 -6.2 l0 11.36 l-1.78 0 l0 -14.24 l1.88 0 l4.42 6.08 l4.42 -6.08 l1.9 0 l0 14.24 z M127.5 20 l0 -14.24 l1.8 0 l0 14.24 l-1.8 0 z M150.56 20.14 c-0.48 0 -0.96 -0.06 -1.44 -0.16 c-1.48 -0.3 -2.94 -1.04 -4.24 -2.16 l1.18 -1.34 c1.06 0.92 2.24 1.54 3.42 1.78 c1 0.22 1.98 0.14 2.76 -0.22 c0.52 -0.24 1.42 -0.84 1.42 -2.06 c0 -1.5 -1.6 -2.04 -3.16 -2.34 c-0.14 -0.02 -2.38 -0.48 -3.28 -1 c-1.2 -0.72 -1.84 -1.8 -1.84 -3.12 c0 -0.74 0.24 -1.44 0.66 -2.06 c0.42 -0.56 1 -1.02 1.68 -1.34 c1 -0.48 2.18 -0.62 3.38 -0.42 c1.3 0.22 2.62 0.84 3.78 1.8 l-1.14 1.38 c-2.06 -1.7 -4.06 -1.74 -5.26 -1.18 c-0.82 0.38 -1.3 1.08 -1.3 1.8 c0 1.36 1.16 1.88 3 2.28 c0.76 0.18 2.34 0.44 3.28 0.98 c1.3 0.72 1.98 1.84 1.98 3.22 c0 0.82 -0.22 1.58 -0.68 2.24 c-0.42 0.6 -1.06 1.06 -1.78 1.42 c-0.76 0.38 -1.54 0.5 -2.42 0.5 z M197.4 20 l0 -7.42 l-7.3 0 l0 7.42 l-1.8 0 l0 -14.24 l1.8 0 l0 5.08 l7.3 0 l0 -5.08 l1.8 0 l0 14.24 l-1.8 0 z M224.76 20 l-1.58 -4.14 l-5.82 0 l-1.58 4.14 l-1.92 0 l5.48 -14.24 l1.86 0 l5.5 14.24 l-1.94 0 z M222.48 14.1 l-2.2 -5.76 l-2.22 5.76 l4.42 0 z M241.56 20 l0 -14.24 l1.8 0 l0 12.5 l7.8 0 l0 1.74 l-9.6 0 z M265.94 20 l0 -14.24 l9 0 l0 1.74 l-7.2 0 l0 3.34 l3.96 0 l0 1.76 l-3.96 0 l0 7.4 l-1.8 0 z M309.86 20 l0 -12.48 l-3.76 0 l0 -1.76 l9.32 0 l0 1.76 l-3.76 0 l0 12.48 l-1.8 0 z M339.52 20 l0 -7.42 l-7.3 0 l0 7.42 l-1.8 0 l0 -14.24 l1.8 0 l0 5.08 l7.3 0 l0 -5.08 l1.8 0 l0 14.24 l-1.8 0 z M357.38 20 l0 -14.24 l9 0 l0 1.72 l-7.2 0 l0 3.34 l6.28 0 l0 1.78 l-6.28 0 l0 5.64 l7.02 0 l0 1.76 l-8.82 0 z M405.68 18.46 c1.78 0 3.44 -0.82 4.54 -2.26 l1.4 1.04 c-1.42 1.9 -3.6 2.98 -5.94 2.98 c-4.12 0 -7.46 -3.34 -7.46 -7.46 c0 -4.1 3.34 -7.44 7.46 -7.44 c2.36 0 4.54 1.1 5.96 3 l-1.42 1.04 c-1.08 -1.46 -2.74 -2.28 -4.54 -2.28 c-3.16 0 -5.7 2.54 -5.7 5.68 c0 3.16 2.54 5.7 5.7 5.7 z M435.8 5.76 l1.8 0 l0 9.02 c0 3 -2.44 5.42 -5.44 5.42 c-2.98 0 -5.42 -2.42 -5.42 -5.42 l0 -9.02 l1.78 0 l0 9.02 c0 2.02 1.64 3.68 3.64 3.68 c2.02 0 3.64 -1.66 3.64 -3.68 l0 -9.02 z M459.02 12.42 l5.5 7.58 l-2.06 0 l-5.44 -7.48 l-2.04 0 l0 7.48 l-1.72 0 l0 -14.24 l4.94 0 c0.9 0 1.74 0.36 2.38 1 s1 1.48 1 2.38 c0 1.58 -1.1 2.9 -2.56 3.28 z M454.98 7.48 l0 3.32 l3.22 0 c0.92 0 1.66 -0.74 1.66 -1.66 s-0.74 -1.66 -1.66 -1.66 l-3.22 0 z M478.48 20 l0 -14.24 l9 0 l0 1.72 l-7.2 0 l0 3.34 l6.28 0 l0 1.78 l-6.28 0 l0 5.64 l7.02 0 l0 1.76 l-8.82 0 z"></path></g>
			</g>
		</svg>
	